<svg xmlns="http://www.w3.org/2000/svg" width="1920" height="1080" viewBox="0 0 1920 1080"><defs>
<linearGradient id="metal" x1="0" y1="0" x2="1" y2="1"><stop offset="0" stop-color="#26312e"/><stop offset=".14" stop-color="#b8c3bd"/><stop offset=".29" stop-color="#596761"/><stop offset=".48" stop-color="#e4e9e5"/><stop offset=".63" stop-color="#6c7973"/><stop offset=".82" stop-color="#c0c8c3"/><stop offset="1" stop-color="#25302d"/></linearGradient>
<linearGradient id="touch" x1="0" y1="0" x2="1" y2="0"><stop offset="0" stop-color="#66523f"/><stop offset=".5" stop-color="#a48663"/><stop offset="1" stop-color="#65513e"/></linearGradient>
<radialGradient id="shadow"><stop offset="0" stop-color="#000" stop-opacity=".34"/><stop offset=".55" stop-color="#000" stop-opacity=".12"/><stop offset="1" stop-color="#000" stop-opacity="0"/></radialGradient></defs><style>
.bg{fill:#efebe2}.paper{fill:#f8f4ec}.ink{fill:#17211f}.muted{fill:#707772}.qing{fill:#477d77}.seal{fill:#a24d40}.h0{font:700 50px "Noto Serif CJK SC","Songti SC",serif}.h1{font:700 28px "Noto Serif CJK SC","Songti SC",serif}.body{font:400 16px "Noto Sans CJK SC","Microsoft YaHei",sans-serif}.s{font:400 12px "Noto Sans CJK SC","Microsoft YaHei",sans-serif}.cap{font:700 11px "Noto Sans CJK SC","Microsoft YaHei",sans-serif;letter-spacing:1.2px}.l1{stroke:#17211f;stroke-width:2.3;fill:none}.l2{stroke:#6f7974;stroke-width:1.2;fill:none}.l3{stroke:#b3b8b4;stroke-width:.8;fill:none}
</style><rect width="1920" height="1080" class="bg"/><text x="58" y="58" class="cap qing">C04 / FLUID REST · BODY + MORPHOLOGY v1.2</text><text x="58" y="120" class="h0 ink">一个母语，四种场景响应。</text><text x="58" y="156" class="body muted">ATTACH / EMBED / EXTEND adapt to context; the route and landscape remain primary.</text><line x1="58" y1="184" x2="1860" y2="184" class="l3"/>
<rect x="58" y="214" width="1040" height="710" class="paper"/><text x="84" y="246" class="cap qing">01 / BODY CONTRACT · NTS</text><g transform="translate(100 250) scale(1.08)"><path d="M0 485C140 414 238 444 350 398C520 328 670 362 890 268L890 630H0Z" fill="#7c897f" opacity=".21"/><ellipse cx="420" cy="650" rx="330" ry="58" fill="url(#shadow)"/><path d="M88 550C186 515 268 503 356 518C445 533 500 500 570 456C628 419 708 413 794 448C724 494 660 517 594 531C520 547 456 567 384 596C300 627 197 618 88 586Z" fill="url(#metal)" stroke="#27332f" stroke-width="2.2"/><path d="M132 562C232 533 310 530 394 545C466 557 518 531 590 491C635 467 683 463 738 481" fill="none" stroke="#f6f8f7" stroke-opacity=".76" stroke-width="7"/><path d="M154 586C250 571 330 578 404 594C488 612 558 574 635 541" fill="none" stroke="url(#touch)" stroke-width="22" stroke-linecap="round"/><g transform="translate(145 535) scale(.88)" class="l1"><circle cx="0" cy="0" r="10" fill="#17211f" stroke="none"/><path d="M0 12L0 58M0 31L-20 47M0 31L21 45M0 58L-22 96M0 58L25 93"/></g><g transform="translate(320 522) scale(1.04)" class="l1"><circle cx="0" cy="0" r="10" fill="#17211f" stroke="none"/><path d="M0 12L-5 48L28 52M-5 48L-20 82M28 52L52 75M-4 30L28 36"/></g><g transform="translate(565 500) scale(.96)" class="l1"><circle cx="0" cy="0" r="10" fill="#17211f" stroke="none"/><path d="M0 12L14 53M8 31L43 36M14 53L2 90M14 53L42 85"/></g></g><line x1="84" y1="790" x2="1070" y2="790" class="l3"/><text x="84" y="824" class="cap seal">BODY SEQUENCE</text><text x="210" y="824" class="body ink">APPROACH → SIT / LEAN → LOOK → RECOVER → LEAVE</text><text x="84" y="862" class="s muted">比 P02 的短时倚靠更强，但不做聚会型广场；只有“持续观看”值得时才出现。</text>
<g transform="translate(1130 214)"><rect width="730" height="710" class="paper"/><text x="26" y="32" class="cap qing">02 / MORPHOLOGY SYSTEM</text><g transform="translate(28 74)"><text class="cap seal">CLIFF-ADJACENT</text><path d="M0 118C70 82 132 92 226 44" class="l2"/><path d="M25 105C90 84 145 89 210 58" stroke="url(#metal)" stroke-width="22" fill="none" stroke-linecap="round"/><text x="250" y="78" class="body ink">收进去，不伸出去。</text><text x="250" y="104" class="s muted">edge / fall protection remains FIELD OPEN</text><line x1="0" y1="142" x2="670" y2="142" class="l3"/><text y="184" class="cap seal">FOREST</text><path d="M16 214V300M74 200V300M148 212V300" stroke="#7f8b84" stroke-width="5"/><path d="M12 304C82 280 142 290 215 260" stroke="#69766f" stroke-width="22" fill="none" stroke-linecap="round"/><text x="250" y="260" class="body ink">反射退场，触感优先。</text><text x="250" y="286" class="s muted">low reflection / quiet presence</text><line x1="0" y1="328" x2="670" y2="328" class="l3"/><text y="370" class="cap seal">VIEW PLATFORM</text><path d="M0 482H222" class="l2"/><path d="M22 470C90 430 148 442 210 405" stroke="url(#metal)" stroke-width="22" fill="none" stroke-linecap="round"/><text x="250" y="438" class="body ink">只有视域值得，才出现。</text><text x="250" y="464" class="s muted">ordinary seat remains comparison baseline</text><line x1="0" y1="510" x2="670" y2="510" class="l3"/><text y="552" class="cap seal">TURN</text><path d="M0 648C70 622 116 634 164 604C210 576 242 592 278 576" class="l2"/><path d="M18 635C80 616 122 622 166 597C202 577 236 585 270 574" stroke="#776b5d" stroke-width="20" fill="none" stroke-linecap="round"/><text x="310" y="604" class="body ink">随转折收短，不连续复制。</text><text x="310" y="630" class="s muted">route direction first</text></g></g><text x="58" y="980" class="cap seal">NO DUPLICATION</text><text x="202" y="980" class="body ink">同一曲线沿线复制 / 大面积高镜面 / 自拍节点 / R13叠加第二Hero → CUT</text><text x="58" y="1025" class="s muted">CURRENTIZATION DIAGRAM / NOT ORIGINAL BOARD GEOMETRY REPRODUCTION / FIELD OPEN / NTS</text></svg>