{"asset":{"version":"2.0","generator":"OLEANDER bounded validation fixture"},"scene":0,"scenes":[{"nodes":[0]}],"nodes":[{"mesh":0,"name":"exercise_surface"}],"meshes":[{"primitives":[{"attributes":{"POSITION":0},"indices":1,"mode":4}]}],"buffers":[{"byteLength":60,"uri":"data:application/octet-stream;base64,"}],"bufferViews":[{"buffer":0,"byteOffset":0,"byteLength":48,"target":34962},{"buffer":0,"byteOffset":48,"byteLength":12,"target":34963}],"accessors":[{"bufferView":0,"byteOffset":0,"componentType":5126,"count":4,"type":"VEC3","min":[0.0,0.0,-5.0],"max":[10.0,2.0,-0.0]},{"bufferView":1,"byteOffset":0,"componentType":5123,"count":6,"type":"SCALAR","min":[0],"max":[3]}]}