0
SECTION
2
HEADER
0
ENDSEC
0
SECTION
2
TABLES
0
ENDSEC
0
SECTION
2
ENTITIES
0
LINE
8
HOUSING_OUTER
10
0
20
0
30
0
11
59
21
0
31
0
0
LINE
8
HOUSING_OUTER
10
59
20
0
30
0
11
59
21
20
31
0
0
LINE
8
HOUSING_OUTER
10
59
20
20
30
0
11
56
21
24
31
0
0
LINE
8
HOUSING_OUTER
10
56
20
24
30
0
11
51
21
27
31
0
0
LINE
8
HOUSING_OUTER
10
51
20
27
30
0
11
0
21
27
31
0
0
LINE
8
HOUSING_OUTER
10
0
20
27
30
0
11
0
21
0
31
0
0
LINE
8
HOUSING_INNER
10
0
20
2
30
0
11
57
21
2
31
0
0
LINE
8
HOUSING_INNER
10
57
20
2
30
0
11
57
21
19
31
0
0
LINE
8
HOUSING_INNER
10
57
20
19
30
0
11
54.5
21
22.5
31
0
0
LINE
8
HOUSING_INNER
10
54.5
20
22.5
30
0
11
50.5
21
25
31
0
0
LINE
8
HOUSING_INNER
10
50.5
20
25
30
0
11
0
21
25
31
0
0
LINE
8
AXIS
10
0
20
-5
30
0
11
0
21
35
31
0
0
LINE
8
DIFFUSER_GUIDE
10
0
20
24
30
0
11
50
21
27
31
0
0
ENDSEC
0
EOF
