0
SECTION
2
ENTITIES
0
LINE
8
F01_MIN_PLAN
10
0
20
0
11
800
21
0
0
LINE
8
F01_MIN_PLAN
10
800
20
0
11
800
21
120
0
LINE
8
F01_MIN_PLAN
10
800
20
120
11
0
21
120
0
LINE
8
F01_MIN_PLAN
10
0
20
120
11
0
21
0
0
LINE
8
F01_MAX_PLAN
10
0
20
0
11
1400
21
0
0
LINE
8
F01_MAX_PLAN
10
1400
20
0
11
1400
21
180
0
LINE
8
F01_MAX_PLAN
10
1400
20
180
11
0
21
180
0
LINE
8
F01_MAX_PLAN
10
0
20
180
11
0
21
0
0
LINE
8
F01_MIN_SECTION
10
0
20
0
11
120
21
0
0
LINE
8
F01_MIN_SECTION
10
120
20
0
11
120
21
900
0
LINE
8
F01_MIN_SECTION
10
120
20
900
11
0
21
900
0
LINE
8
F01_MIN_SECTION
10
0
20
900
11
0
21
0
0
LINE
8
F01_MAX_SECTION
10
0
20
0
11
180
21
0
0
LINE
8
F01_MAX_SECTION
10
180
20
0
11
180
21
1050
0
LINE
8
F01_MAX_SECTION
10
180
20
1050
11
0
21
1050
0
LINE
8
F01_MAX_SECTION
10
0
20
1050
11
0
21
0
0
ENDSEC
0
EOF
