<svg xmlns="http://www.w3.org/2000/svg" viewBox="0 0 1400 860"><style>.bg{fill:#e4ebe5}.phone{fill:#f4f0e5;stroke:#17332c;stroke-width:2}.ink{fill:#17332c}.m{fill:#66786f}.q{fill:#548b7e}.r{fill:#a54539}.w{fill:#fff}.l{stroke:rgba(23,51,44,.18);stroke-width:1}.ser{font-family:'Noto Serif CJK SC',serif}.san{font-family:'Noto Sans CJK SC',sans-serif}</style><rect width="1400" height="860" class="bg"/><rect x="120" y="70" width="1160" height="720" rx="24" class="phone"/><text x="170" y="126" class="san q" font-size="12" font-weight="700" letter-spacing="2">MEMORY-SYSTEM VIEW / CH15 · UI IMPLEMENTATION REMAINS CH11 AUTHORITY</text><text x="170" y="192" class="ser ink" font-size="44" font-weight="700">我的石书</text><text x="170" y="232" class="san m" font-size="16">PERSONAL ROUTE · MEMORY, NOT SCORE</text><line x1="170" y1="264" x2="1230" y2="264" class="l"/><g transform="translate(170 305)"><rect width="300" height="360" rx="18" class="w"/><text x="24" y="38" class="san q" font-size="11" font-weight="700">S0 / SCENE</text><text x="24" y="86" class="ser ink" font-size="30">观江的一刻</text><path d="M24 144 C90 105 144 160 202 130 S260 110 278 92" fill="none" stroke="#548b7e" stroke-width="4"/><text x="24" y="226" class="san ink" font-size="15">动作：停下</text><text x="24" y="258" class="san m" font-size="14">“风把水面推远了一点。”</text><text x="24" y="318" class="san r" font-size="11" font-weight="700">以后再看 →</text></g><g transform="translate(500 305)"><rect width="300" height="360" rx="18" class="w"/><text x="24" y="38" class="san q" font-size="11" font-weight="700">S1 / OPTIONAL NOTE</text><text x="24" y="86" class="ser ink" font-size="30">裂隙之后</text><rect x="24" y="132" width="252" height="104" rx="9" fill="#e7eee9"/><path d="M42 218 L128 146 L172 201 L246 153" fill="none" stroke="#315f55" stroke-width="3"/><text x="24" y="275" class="san ink" font-size="15">动作：回看</text><text x="24" y="308" class="san m" font-size="14">可加照片 / 一句话 / 来源层</text></g><g transform="translate(830 305)"><rect width="300" height="360" rx="18" fill="#f4f0e5" stroke="#aab7b0" stroke-dasharray="9 9"/><text x="24" y="38" class="san q" font-size="11" font-weight="700">UNREAD / BLANK</text><text x="24" y="94" class="ser ink" font-size="29">这一页还没打开</text><text x="24" y="142" class="san m" font-size="14">空白不是失败。</text><text x="24" y="174" class="san m" font-size="14">不显示灰掉、锁住、缺章。</text><circle cx="150" cy="257" r="44" fill="none" stroke="#aab7b0" stroke-width="2"/><path d="M128 257h44" stroke="#aab7b0" stroke-width="2"/></g><text x="170" y="726" class="san r" font-size="12" font-weight="700">NO 13/13 · NO GPS PRECISION CLAIM · NO COMPLETION LEDGER</text></svg>