0
SECTION
2
ENTITIES
0
LINE
8
HOUSING
10
0
20
0
30
0
11
59
21
0
31
0
0
LINE
8
HOUSING
10
59
20
0
30
0
11
59
21
25
31
0
0
LINE
8
HOUSING
10
59
20
25
30
0
11
55
21
29
31
0
0
LINE
8
HOUSING
10
55
20
29
30
0
11
52.5
21
32
31
0
0
LINE
8
HOUSING
10
52.5
20
32
30
0
11
50.5
21
32
31
0
0
LINE
8
HOUSING
10
50.5
20
32
30
0
11
50.5
21
27
31
0
0
LINE
8
HOUSING
10
50.5
20
27
30
0
11
55
21
24
31
0
0
LINE
8
HOUSING
10
55
20
24
30
0
11
57
21
2
31
0
0
LINE
8
HOUSING
10
57
20
2
30
0
11
0
21
2
31
0
0
LINE
8
HOUSING
10
0
20
0
30
0
11
-59
21
0
31
0
0
LINE
8
HOUSING
10
-59
20
0
30
0
11
-59
21
25
31
0
0
LINE
8
HOUSING
10
-59
20
25
30
0
11
-55
21
29
31
0
0
LINE
8
HOUSING
10
-55
20
29
30
0
11
-52.5
21
32
31
0
0
LINE
8
HOUSING
10
-52.5
20
32
30
0
11
-50.5
21
32
31
0
0
LINE
8
HOUSING
10
-50.5
20
32
30
0
11
-50.5
21
27
31
0
0
LINE
8
HOUSING
10
-50.5
20
27
30
0
11
-55
21
24
31
0
0
LINE
8
HOUSING
10
-55
20
24
30
0
11
-57
21
2
31
0
0
LINE
8
HOUSING
10
-57
20
2
30
0
11
0
21
2
31
0
0
LINE
8
HOUSING
10
-59
20
0
30
0
11
59
21
0
31
0
0
LINE
8
HOUSING
10
-57
20
2
30
0
11
57
21
2
31
0
0
LINE
8
DIFFUSER
10
0.0
20
26.0
30
0
11
2.5
21
26.0075
31
0
0
LINE
8
DIFFUSER
10
2.5
20
26.0075
30
0
11
5.0
21
26.03
31
0
0
LINE
8
DIFFUSER
10
5.0
20
26.03
30
0
11
7.5
21
26.0675
31
0
0
LINE
8
DIFFUSER
10
7.5
20
26.0675
30
0
11
10.0
21
26.12
31
0
0
LINE
8
DIFFUSER
10
10.0
20
26.12
30
0
11
12.5
21
26.1875
31
0
0
LINE
8
DIFFUSER
10
12.5
20
26.1875
30
0
11
15.0
21
26.27
31
0
0
LINE
8
DIFFUSER
10
15.0
20
26.27
30
0
11
17.5
21
26.3675
31
0
0
LINE
8
DIFFUSER
10
17.5
20
26.3675
30
0
11
20.0
21
26.48
31
0
0
LINE
8
DIFFUSER
10
20.0
20
26.48
30
0
11
22.5
21
26.6075
31
0
0
LINE
8
DIFFUSER
10
22.5
20
26.6075
30
0
11
25.0
21
26.75
31
0
0
LINE
8
DIFFUSER
10
25.0
20
26.75
30
0
11
27.500000000000004
21
26.9075
31
0
0
LINE
8
DIFFUSER
10
27.500000000000004
20
26.9075
30
0
11
30.0
21
27.08
31
0
0
LINE
8
DIFFUSER
10
30.0
20
27.08
30
0
11
32.5
21
27.2675
31
0
0
LINE
8
DIFFUSER
10
32.5
20
27.2675
30
0
11
35.0
21
27.47
31
0
0
LINE
8
DIFFUSER
10
35.0
20
27.47
30
0
11
37.5
21
27.6875
31
0
0
LINE
8
DIFFUSER
10
37.5
20
27.6875
30
0
11
40.0
21
27.92
31
0
0
LINE
8
DIFFUSER
10
40.0
20
27.92
30
0
11
42.5
21
28.1675
31
0
0
LINE
8
DIFFUSER
10
42.5
20
28.1675
30
0
11
45.0
21
28.43
31
0
0
LINE
8
DIFFUSER
10
45.0
20
28.43
30
0
11
47.5
21
28.7075
31
0
0
LINE
8
DIFFUSER
10
47.5
20
28.7075
30
0
11
50.0
21
29.0
31
0
0
LINE
8
DIFFUSER
10
50.0
20
29.0
30
0
11
50.0
21
27.0
31
0
0
LINE
8
DIFFUSER
10
50.0
20
27.0
30
0
11
47.5
21
26.7075
31
0
0
LINE
8
DIFFUSER
10
47.5
20
26.7075
30
0
11
45.0
21
26.43
31
0
0
LINE
8
DIFFUSER
10
45.0
20
26.43
30
0
11
42.5
21
26.1675
31
0
0
LINE
8
DIFFUSER
10
42.5
20
26.1675
30
0
11
40.0
21
25.92
31
0
0
LINE
8
DIFFUSER
10
40.0
20
25.92
30
0
11
37.5
21
25.6875
31
0
0
LINE
8
DIFFUSER
10
37.5
20
25.6875
30
0
11
35.0
21
25.47
31
0
0
LINE
8
DIFFUSER
10
35.0
20
25.47
30
0
11
32.5
21
25.2675
31
0
0
LINE
8
DIFFUSER
10
32.5
20
25.2675
30
0
11
30.0
21
25.08
31
0
0
LINE
8
DIFFUSER
10
30.0
20
25.08
30
0
11
27.500000000000004
21
24.9075
31
0
0
LINE
8
DIFFUSER
10
27.500000000000004
20
24.9075
30
0
11
25.0
21
24.75
31
0
0
LINE
8
DIFFUSER
10
25.0
20
24.75
30
0
11
22.5
21
24.6075
31
0
0
LINE
8
DIFFUSER
10
22.5
20
24.6075
30
0
11
20.0
21
24.48
31
0
0
LINE
8
DIFFUSER
10
20.0
20
24.48
30
0
11
17.5
21
24.3675
31
0
0
LINE
8
DIFFUSER
10
17.5
20
24.3675
30
0
11
15.0
21
24.27
31
0
0
LINE
8
DIFFUSER
10
15.0
20
24.27
30
0
11
12.5
21
24.1875
31
0
0
LINE
8
DIFFUSER
10
12.5
20
24.1875
30
0
11
10.0
21
24.12
31
0
0
LINE
8
DIFFUSER
10
10.0
20
24.12
30
0
11
7.5
21
24.0675
31
0
0
LINE
8
DIFFUSER
10
7.5
20
24.0675
30
0
11
5.0
21
24.03
31
0
0
LINE
8
DIFFUSER
10
5.0
20
24.03
30
0
11
2.5
21
24.0075
31
0
0
LINE
8
DIFFUSER
10
2.5
20
24.0075
30
0
11
0.0
21
24.0
31
0
0
LINE
8
DIFFUSER
10
-0.0
20
26.0
30
0
11
-2.5
21
26.0075
31
0
0
LINE
8
DIFFUSER
10
-2.5
20
26.0075
30
0
11
-5.0
21
26.03
31
0
0
LINE
8
DIFFUSER
10
-5.0
20
26.03
30
0
11
-7.5
21
26.0675
31
0
0
LINE
8
DIFFUSER
10
-7.5
20
26.0675
30
0
11
-10.0
21
26.12
31
0
0
LINE
8
DIFFUSER
10
-10.0
20
26.12
30
0
11
-12.5
21
26.1875
31
0
0
LINE
8
DIFFUSER
10
-12.5
20
26.1875
30
0
11
-15.0
21
26.27
31
0
0
LINE
8
DIFFUSER
10
-15.0
20
26.27
30
0
11
-17.5
21
26.3675
31
0
0
LINE
8
DIFFUSER
10
-17.5
20
26.3675
30
0
11
-20.0
21
26.48
31
0
0
LINE
8
DIFFUSER
10
-20.0
20
26.48
30
0
11
-22.5
21
26.6075
31
0
0
LINE
8
DIFFUSER
10
-22.5
20
26.6075
30
0
11
-25.0
21
26.75
31
0
0
LINE
8
DIFFUSER
10
-25.0
20
26.75
30
0
11
-27.500000000000004
21
26.9075
31
0
0
LINE
8
DIFFUSER
10
-27.500000000000004
20
26.9075
30
0
11
-30.0
21
27.08
31
0
0
LINE
8
DIFFUSER
10
-30.0
20
27.08
30
0
11
-32.5
21
27.2675
31
0
0
LINE
8
DIFFUSER
10
-32.5
20
27.2675
30
0
11
-35.0
21
27.47
31
0
0
LINE
8
DIFFUSER
10
-35.0
20
27.47
30
0
11
-37.5
21
27.6875
31
0
0
LINE
8
DIFFUSER
10
-37.5
20
27.6875
30
0
11
-40.0
21
27.92
31
0
0
LINE
8
DIFFUSER
10
-40.0
20
27.92
30
0
11
-42.5
21
28.1675
31
0
0
LINE
8
DIFFUSER
10
-42.5
20
28.1675
30
0
11
-45.0
21
28.43
31
0
0
LINE
8
DIFFUSER
10
-45.0
20
28.43
30
0
11
-47.5
21
28.7075
31
0
0
LINE
8
DIFFUSER
10
-47.5
20
28.7075
30
0
11
-50.0
21
29.0
31
0
0
LINE
8
DIFFUSER
10
-50.0
20
29.0
30
0
11
-50.0
21
27.0
31
0
0
LINE
8
DIFFUSER
10
-50.0
20
27.0
30
0
11
-47.5
21
26.7075
31
0
0
LINE
8
DIFFUSER
10
-47.5
20
26.7075
30
0
11
-45.0
21
26.43
31
0
0
LINE
8
DIFFUSER
10
-45.0
20
26.43
30
0
11
-42.5
21
26.1675
31
0
0
LINE
8
DIFFUSER
10
-42.5
20
26.1675
30
0
11
-40.0
21
25.92
31
0
0
LINE
8
DIFFUSER
10
-40.0
20
25.92
30
0
11
-37.5
21
25.6875
31
0
0
LINE
8
DIFFUSER
10
-37.5
20
25.6875
30
0
11
-35.0
21
25.47
31
0
0
LINE
8
DIFFUSER
10
-35.0
20
25.47
30
0
11
-32.5
21
25.2675
31
0
0
LINE
8
DIFFUSER
10
-32.5
20
25.2675
30
0
11
-30.0
21
25.08
31
0
0
LINE
8
DIFFUSER
10
-30.0
20
25.08
30
0
11
-27.500000000000004
21
24.9075
31
0
0
LINE
8
DIFFUSER
10
-27.500000000000004
20
24.9075
30
0
11
-25.0
21
24.75
31
0
0
LINE
8
DIFFUSER
10
-25.0
20
24.75
30
0
11
-22.5
21
24.6075
31
0
0
LINE
8
DIFFUSER
10
-22.5
20
24.6075
30
0
11
-20.0
21
24.48
31
0
0
LINE
8
DIFFUSER
10
-20.0
20
24.48
30
0
11
-17.5
21
24.3675
31
0
0
LINE
8
DIFFUSER
10
-17.5
20
24.3675
30
0
11
-15.0
21
24.27
31
0
0
LINE
8
DIFFUSER
10
-15.0
20
24.27
30
0
11
-12.5
21
24.1875
31
0
0
LINE
8
DIFFUSER
10
-12.5
20
24.1875
30
0
11
-10.0
21
24.12
31
0
0
LINE
8
DIFFUSER
10
-10.0
20
24.12
30
0
11
-7.5
21
24.0675
31
0
0
LINE
8
DIFFUSER
10
-7.5
20
24.0675
30
0
11
-5.0
21
24.03
31
0
0
LINE
8
DIFFUSER
10
-5.0
20
24.03
30
0
11
-2.5
21
24.0075
31
0
0
LINE
8
DIFFUSER
10
-2.5
20
24.0075
30
0
11
-0.0
21
24.0
31
0
0
LINE
8
LED_RING
10
26.1
20
18
30
0
11
32.75
21
18
31
0
0
LINE
8
LED_RING
10
26.1
20
21.25
30
0
11
32.75
21
21.25
31
0
0
LINE
8
LED_RING
10
26.1
20
18
30
0
11
26.1
21
21.25
31
0
0
LINE
8
LED_RING
10
32.75
20
18
30
0
11
32.75
21
21.25
31
0
0
LINE
8
LED_RING
10
-26.1
20
18
30
0
11
-32.75
21
18
31
0
0
LINE
8
LED_RING
10
-26.1
20
21.25
30
0
11
-32.75
21
21.25
31
0
0
LINE
8
LED_RING
10
-26.1
20
18
30
0
11
-26.1
21
21.25
31
0
0
LINE
8
LED_RING
10
-32.75
20
18
30
0
11
-32.75
21
21.25
31
0
0
LINE
8
MCU
10
-10.5
20
10
30
0
11
10.5
21
10
31
0
0
LINE
8
MCU
10
10.5
20
10
30
0
11
10.5
21
12.2
31
0
0
LINE
8
MCU
10
10.5
20
12.2
30
0
11
-10.5
21
12.2
31
0
0
LINE
8
MCU
10
-10.5
20
12.2
30
0
11
-10.5
21
10
31
0
0
LINE
8
CENTERLINE
10
0
20
-5
30
0
11
0
21
38
31
0
0
ENDSEC
0
EOF
